<svg width="460" height="461" viewBox="0 0 460 461" fill="none" xmlns="http://www.w3.org/2000/svg">
<path d="M496.482 372.191C441.552 428.853 368.515 460.059 290.832 460.059C213.15 460.059 140.113 428.853 85.1826 372.191C30.2521 315.529 0 240.19 0 160.059C0 79.9272 30.2521 4.58844 85.1826 -52.0735C140.113 -108.736 213.15 -139.941 290.832 -139.941C344.014 -139.941 396.052 -124.991 441.317 -96.7055C452.052 -89.9993 455.482 -75.5889 448.981 -64.5201C442.479 -53.4468 428.505 -49.9083 417.774 -56.6146C379.61 -80.4595 335.711 -93.0663 290.832 -93.0663C163.185 -93.0663 58.0058 7.9942 46.5032 136.621H191.134C201.496 89.7096 242.261 54.59 290.832 54.59C339.404 54.59 380.169 89.7096 390.531 136.621H535.157C531.376 95.0242 517.553 54.9608 494.614 19.5665C487.638 8.80902 490.443 -5.74786 500.876 -12.9439C511.304 -20.1354 525.416 -17.2423 532.393 -6.48486C564.624 43.2512 581.665 100.842 581.665 160.059C581.665 240.19 551.413 315.529 496.482 372.191ZM290.832 413.184C418.48 413.184 523.659 312.123 535.162 183.496H390.531C380.169 230.408 339.404 265.527 290.832 265.527C242.261 265.527 201.496 230.408 191.134 183.496H46.5032C58.0058 312.123 163.185 413.184 290.832 413.184ZM290.832 101.465C259.511 101.465 234.029 127.75 234.029 160.059C234.029 192.368 259.511 218.652 290.832 218.652C322.154 218.652 347.636 192.368 347.636 160.059C347.636 127.75 322.154 101.465 290.832 101.465Z" fill="white" fill-opacity="0.15"/>
</svg>
